<svg xmlns="http://www.w3.org/2000/svg" width="72.464" height="66.603" viewBox="0 0 72.464 66.603">
  <g id="Group_84" data-name="Group 84" transform="translate(-928.797 -1210.841)">
    <g id="trust" transform="translate(928.797 1210.841)">
      <path id="Sparkle3" d="M4.209,24.6ZM8.66,0h0c-.212,2.271-.373,5.249-1.847,6.773S2.382,8.489,0,8.671H0c2.443.313,5.491.5,7.066,2.15,1.393,1.464,1.423,4.27,1.625,6.389h0c.262-2.15.373-5.107,1.827-6.591s4.532-1.655,6.844-1.938h0c-2.18-.182-5.39-.525-6.924-2.019S8.923,2.362,8.64,0ZM19.309,12.95h0c-.141,1.514-.252,3.492-1.231,4.512s-2.957,1.151-4.552,1.272h0c1.635.2,3.664.333,4.7,1.423s.949,2.846,1.08,4.27h0c.172-1.433.252-3.412,1.221-4.4s3.028-1.1,4.562-1.292h0c-1.453-.121-3.593-.343-4.623-1.363s-1.009-2.846-1.151-4.421ZM26.92,23.932h0a3.876,3.876,0,0,1-.616,2.251,3.553,3.553,0,0,1-2.271.636h0a4.037,4.037,0,0,1,2.352.717,3.836,3.836,0,0,1,.545,2.13h0a3.937,3.937,0,0,1,.606-2.2,3.967,3.967,0,0,1,2.271-.646h0a4.108,4.108,0,0,1-2.311-.686c-.515-.515-.474-1.423-.575-2.211Z" transform="translate(29.665) rotate(90)" fill="#fff"/>
      <path id="Sparkle3-2" data-name="Sparkle3" d="M84.554,55.15h0c-.141,1.514-.252,3.492-1.231,4.512s-2.957,1.151-4.542,1.272h0c1.635.2,3.654.333,4.694,1.423s.949,2.846,1.08,4.27h0c.172-1.433.252-3.4,1.221-4.4s3.028-1.1,4.562-1.292h0c-1.453-.121-3.593-.343-4.623-1.363s-1.009-2.846-1.151-4.421ZM92.124,66.1h0a3.916,3.916,0,0,1-.606,2.251,3.6,3.6,0,0,1-2.281.636h0a4.038,4.038,0,0,1,2.352.717,3.755,3.755,0,0,1,.545,2.13h0a3.936,3.936,0,0,1,.606-2.2,3.977,3.977,0,0,1,2.281-.646h0A4.118,4.118,0,0,1,92.7,68.3C92.225,67.818,92.265,66.909,92.124,66.1Z" transform="translate(-22.557 -23.709)" fill="#fff"/>
    </g>
    <path id="tractor-solid_1_" data-name="tractor-solid (1)" d="M43.565,27.723a7.261,7.261,0,1,0,7.261,7.261A7.261,7.261,0,0,0,43.565,27.723Zm0,9.241a1.98,1.98,0,1,1,1.98-1.98A1.983,1.983,0,0,1,43.565,36.964Zm6.6-23.762H44.885V9.885a5.289,5.289,0,0,1,1.085-3.2,1.273,1.273,0,0,0-.109-1.608L44.076,3.078a1.343,1.343,0,0,0-2.038.064A10.575,10.575,0,0,0,39.6,9.885V13.2H31.161L26.533,2.4A3.953,3.953,0,0,0,22.892,0H11.881a3.965,3.965,0,0,0-3.96,3.96V16.05a1.8,1.8,0,0,0-2.384.121L2.97,18.738a1.815,1.815,0,0,0,0,2.567l.417.417a12.517,12.517,0,0,0-.983,2.37h-.59A1.815,1.815,0,0,0,0,25.907v3.63a1.815,1.815,0,0,0,1.815,1.815H2.4a12.579,12.579,0,0,0,.983,2.37l-.417.417a1.815,1.815,0,0,0,0,2.567l2.567,2.567a1.815,1.815,0,0,0,2.567,0l.417-.417a12.517,12.517,0,0,0,2.37.983v.59a1.815,1.815,0,0,0,1.815,1.815h3.63a1.815,1.815,0,0,0,1.815-1.815V39.84a12.517,12.517,0,0,0,2.37-.983l.417.417a1.815,1.815,0,0,0,2.567,0l2.567-2.567a1.815,1.815,0,0,0,0-2.567l-.417-.417a12.518,12.518,0,0,0,.983-2.37h.591a1.815,1.815,0,0,0,1.815-1.815v-.5h6.645a9.737,9.737,0,0,1,12.15-2.954L52.032,21.9A2.64,2.64,0,0,0,52.8,20.03V15.842A2.639,2.639,0,0,0,50.165,13.2ZM14.521,34.324a6.6,6.6,0,1,1,6.6-6.6A6.6,6.6,0,0,1,14.521,34.324ZM16.337,13.2H13.2V5.281h8.819l3.4,7.921Z" transform="matrix(0.966, -0.259, 0.259, 0.966, 930.576, 1236.638)" fill="#fff" opacity="0.996"/>
  </g>
</svg>
