<?xml version="1.0" encoding="utf-8"?>
<!-- Generator: Adobe Illustrator 26.0.0, SVG Export Plug-In . SVG Version: 6.00 Build 0)  -->
<svg version="1.1" xmlns="http://www.w3.org/2000/svg" xmlns:xlink="http://www.w3.org/1999/xlink" x="0px" y="0px"
	 viewBox="0 0 115 115" style="enable-background:new 0 0 115 115;" xml:space="preserve">
<style type="text/css">
	.st0{fill-rule:evenodd;clip-rule:evenodd;fill:#FFFFFF;}
	.st1{fill:#FFFFFF;}
</style>
<g id="Layer_2">
	<g>
		<g transform="translate(-148.000000, -445.000000)">
			<g transform="translate(148.000000, 445.000000)">
				<path class="st0" d="M62.5,24.5c-6.6,0-13.8,1.7-13.8,5.5v22c0,3.8,7.1,5.5,13.8,5.5s13.8-1.7,13.8-5.5V30
					C76.3,26.2,69.2,24.5,62.5,24.5z M62.5,32.7c-7.2,0-11-2.1-11-2.8s3.8-2.8,11-2.8s11,2.1,11,2.8S69.8,32.7,62.5,32.7z"/>
			</g>
		</g>
	</g>
</g>
<g id="Layer_1">
	<path class="st1" d="M85.1,80.8c-4.6,3.2-20.5,13-28.7,12.6c-5.1-0.4-10.1-1.4-15-3c-0.8-0.2-1.7-0.1-2.4,0.5l-3,2.3
		c-0.9,0.7-2.2,0.5-2.9-0.4l-8-10.5c-0.7-0.9-0.6-2.1,0.3-2.8c0,0,0.1-0.1,0.1-0.1c0.8-0.6,1.9-1.4,3.1-2.3c0.7,0.3,1.3,0.7,1.8,1.3
		c0.9,1.1,1.5,2.5,1.7,3.9c0.3,1.5,0.3,3.2,0.5,4.5c0.3-2.8,0.5-6.7,2.4-8.7c1.1-1,2.6-1.7,4.1-1.9c1.6-0.3,3.4-0.4,4.9-0.6
		c-2.9-0.2-7.1-0.7-9.2-2.7l0,0c5.1-3.1,10.4-5,13.1-5.2c3.5-0.3,7.1-0.3,10.6,0.1c3.2,0.3,6.5,0.4,9.7,0.3c1.9-0.1,3.5,1.4,3.6,3.2
		c0.3,2.1-0.9,4.6-5.1,5.4c-2.2,0.5-5.8,0.1-9.6-0.2c-0.2,0-0.5-0.1-0.7-0.1c-0.8-0.1-1.4,0.4-1.5,1.2c0,0.1,0,0.2,0,0.3
		c0.1,0.7,0.7,1.3,1.4,1.3c0.2,0.1,0.4,0.1,0.6,0.1c2.9,0.2,5.5,0.5,7.8,0.4c0.8,0,1.7-0.1,2.5-0.3c2.6-0.3,5-1.8,6.4-4
		c2.6-0.6,5.2-1.3,7.8-2.1C86.4,71.3,89.7,77.7,85.1,80.8z"/>
	<path id="Sparkle3" class="st1" d="M33.8,73.9c1.2,1.2,3.8,1.5,5.5,1.6l0,0c-1.8,0.2-4.2,0.3-5.4,1.6s-1.2,3.5-1.5,5.2l0,0
		c-0.2-1.7-0.2-3.9-1.3-5.1s-3.6-1.4-5.6-1.7l0,0c1.9-0.1,4.2-0.2,5.4-1.5s1.3-3.6,1.5-5.4l0,0C32.7,70.5,32.6,72.7,33.8,73.9z
		 M36.8,44.2L36.8,44.2c-0.2,2.2-0.4,5.2-1.8,6.7s-4.4,1.7-6.8,1.9l0,0c2.4,0.3,5.4,0.5,7,2.1c1.4,1.5,1.4,4.2,1.6,6.3l0,0
		c0.3-2.1,0.4-5.1,1.8-6.5s4.5-1.6,6.8-1.9l0,0c-2.2-0.2-5.3-0.5-6.9-2S37.1,46.6,36.8,44.2L36.8,44.2z M47.4,57.1L47.4,57.1
		c-0.1,1.5-0.2,3.5-1.2,4.5s-2.9,1.1-4.5,1.3l0,0c1.6,0.2,3.6,0.3,4.7,1.4s0.9,2.8,1.1,4.2l0,0c0.2-1.4,0.2-3.4,1.2-4.4
		s3-1.1,4.5-1.3l0,0c-1.4-0.1-3.6-0.3-4.6-1.3S47.5,58.6,47.4,57.1L47.4,57.1z M54.9,67.9L54.9,67.9c0,0.8-0.2,1.6-0.6,2.2
		c-0.7,0.5-1.5,0.7-2.2,0.6l0,0c0.8,0,1.6,0.2,2.3,0.7c0.4,0.6,0.6,1.4,0.5,2.1l0,0c0-0.8,0.2-1.5,0.6-2.2c0.7-0.4,1.5-0.7,2.2-0.6
		l0,0c-0.8,0-1.6-0.2-2.3-0.7C55,69.6,55,68.7,54.9,67.9L54.9,67.9z"/>
	<path id="Sparkle3-2" class="st1" d="M84.5,55.2L84.5,55.2c-0.1,1.5-0.2,3.5-1.2,4.5s-2.9,1.1-4.5,1.3l0,0c1.6,0.2,3.6,0.3,4.7,1.4
		s0.9,2.8,1.1,4.2l0,0c0.2-1.4,0.2-3.4,1.2-4.4s3-1.1,4.5-1.3l0,0c-1.4-0.1-3.6-0.3-4.6-1.3S84.6,56.7,84.5,55.2L84.5,55.2z M92,66
		L92,66c0,0.8-0.2,1.6-0.6,2.2c-0.7,0.5-1.5,0.7-2.3,0.6l0,0c0.8,0,1.6,0.2,2.3,0.7c0.4,0.6,0.6,1.4,0.5,2.1l0,0
		c0-0.8,0.2-1.5,0.6-2.2c0.7-0.4,1.5-0.7,2.3-0.6l0,0c-0.8,0-1.6-0.2-2.3-0.7C92.1,67.7,92.1,66.8,92,66z"/>
</g>
</svg>
