<svg id="Layer_1" data-name="Layer 1" xmlns="http://www.w3.org/2000/svg" viewBox="0 0 115 115"><defs><style>.megaphone-1{fill:#fff;}.megaphone-2{fill:none;stroke:#fff;stroke-miterlimit:10;}</style></defs><path class="megaphone-1" d="M81.45,81.61v0a.43.43,0,0,1,0,.16s0,.07,0,.11l-.06.11a.54.54,0,0,1-.09.12s0,0,0,0a.81.81,0,0,0-.1.09s-.06,0-.09.05a.89.89,0,0,1-.26.09,1,1,0,0,1-.3,0l-.07,0a.62.62,0,0,1-.19-.11h0A73.34,73.34,0,0,0,73.13,77L68.81,31.56a52.48,52.48,0,0,0,4.69-6h0l.11-.11a.52.52,0,0,1,.11-.07l.1-.05.16-.05h.28a.35.35,0,0,1,.14.06l.1,0h0l.11.11s.06.05.08.08,0,.08,0,.11a.83.83,0,0,1,0,.15v0l2.29,19.35.14,1.17L79,61.1l.21,1.75Z"/><path class="megaphone-1" d="M79.66,60.56,77.89,46.7a7.54,7.54,0,0,1,1.77,13.86Z"/><path class="megaphone-1" d="M31.93,71.57c.87-.1,1.69-.17,2.53-.25l4.2,17.45s0,.07,0,.11a1.17,1.17,0,0,1,0,.11l.11.12.07.08.16.07a.26.26,0,0,0,.09,0,.8.8,0,0,0,.27,0h0l7.27-.87h.07l.1,0,.13-.06.11-.09s.07-.06.09-.1a.83.83,0,0,0,.07-.13.5.5,0,0,0,0-.13.32.32,0,0,0,0-.14.41.41,0,0,0,0-.11s0,0,0,0v0L43.48,70.8c15-.23,24.64,3,31.7,7.3L69.57,30.88c-7.23,7.23-18.76,13.77-40.51,16.47l2.87,24.22Z"/><path class="megaphone-1" d="M29.06,47.35l-7.5,1.14a2.56,2.56,0,0,0-2.16,2.87l2.32,17a4.48,4.48,0,0,0,4.93,3.85l5.28-.6Z"/><path class="megaphone-1" d="M31.35,27.53h0c-.15,1.62-.27,3.75-1.32,4.84s-3.17,1.22-4.87,1.36h0c1.76.22,3.93.35,5,1.53s1,3,1.16,4.56h0c.18-1.53.27-3.64,1.31-4.7s3.23-1.19,4.88-1.39h0c-1.56-.14-3.84-.37-5-1.46s-1-3.05-1.23-4.74Z"/><path class="megaphone-1" d="M39.5,39.29h0a4.28,4.28,0,0,1-.65,2.42,3.81,3.81,0,0,1-2.44.68h0a4.28,4.28,0,0,1,2.52.77,4,4,0,0,1,.58,2.28h0a4.29,4.29,0,0,1,.65-2.36,4.28,4.28,0,0,1,2.44-.69h0a4.37,4.37,0,0,1-2.48-.73c-.55-.55-.51-1.53-.62-2.37Z"/><path class="megaphone-1" d="M55.89,85.4h0c.13-1.35.23-3.13,1.1-4s2.65-1,4.07-1.13h0c-1.46-.19-3.28-.3-4.21-1.28s-.84-2.55-1-3.82h0c-.16,1.29-.23,3.05-1.09,3.93s-2.71,1-4.09,1.17h0c1.31.1,3.22.3,4.14,1.21s.86,2.55,1,4Z"/><path class="megaphone-1" d="M59.89,75.81h0a3.6,3.6,0,0,1,.55-2,3.28,3.28,0,0,1,2-.57h0a3.62,3.62,0,0,1-2.11-.64,3.41,3.41,0,0,1-.48-1.9h0a3.57,3.57,0,0,1-.55,2,3.48,3.48,0,0,1-2,.58h0a3.74,3.74,0,0,1,2.07.61c.46.47.43,1.28.51,2Z"/><line class="megaphone-2" x1="80.7" y1="37.81" x2="86.5" y2="30.5"/><line class="megaphone-2" x1="88.95" y1="50.14" x2="97.58" y2="46.69"/><line class="megaphone-2" x1="86.76" y1="63.73" x2="94.83" y2="68.62"/></svg>
