<svg id="Layer_1" data-name="Layer 1" xmlns="http://www.w3.org/2000/svg" viewBox="0 0 115 115"><defs><style>.trust{fill:#fff;}</style></defs><path id="Path_649" data-name="Path 649" class="trust" d="M74.61,22.89C70.32,19.28,64,19.94,60,24l-1.48,1.61L57.06,24a10.78,10.78,0,0,0-14.6-1.07,11.22,11.22,0,0,0-.81,16.21L56.79,54.65a2.3,2.3,0,0,0,3.49,0L75.42,39.1A11.11,11.11,0,0,0,74.61,22.89Z"/><path class="trust" d="M85.06,80.8c-4.57,3.17-20.49,13-28.74,12.55a67.3,67.3,0,0,1-15-3,2.72,2.72,0,0,0-2.44.46l-3,2.3a2.07,2.07,0,0,1-2.9-.39L24.94,82.25a2,2,0,0,1,.4-2.9c.84-.64,1.93-1.44,3.14-2.3a6.27,6.27,0,0,1,1.83,1.28A7.51,7.51,0,0,1,32,82.23c.27,1.52.35,3.15.49,4.54.33-2.84.49-6.73,2.42-8.69A7.81,7.81,0,0,1,39,76.14c1.62-.33,3.37-.45,4.89-.64-2.89-.23-7.12-.68-9.16-2.69,0,0,0,0,0,0,5.06-3.08,10.35-5,13.13-5.25a61.43,61.43,0,0,1,10.57.06,68.74,68.74,0,0,0,9.71.26,3.44,3.44,0,0,1,3.56,3.24c.27,2.12-.92,4.63-5.08,5.41-2.25.46-5.82.14-9.57-.19-.21,0-.46-.07-.67-.07a1.37,1.37,0,0,0-1.52,1.52,1.51,1.51,0,0,0,1.39,1.32,1.71,1.71,0,0,0,.59.07c2.91.2,5.55.46,7.8.39a21.14,21.14,0,0,0,2.51-.26,9,9,0,0,0,6.41-4,75.71,75.71,0,0,0,7.8-2.11C86.37,71.35,89.68,77.7,85.06,80.8Z"/><path id="Sparkle3" class="trust" d="M33.83,73.87c1.22,1.2,3.76,1.47,5.49,1.61h0c-1.83.23-4.19.28-5.43,1.55s-1.24,3.52-1.45,5.22h0c-.16-1.68-.18-3.91-1.28-5.07s-3.65-1.45-5.6-1.7h0c1.89-.14,4.18-.23,5.4-1.51s1.3-3.57,1.46-5.37h0C32.67,70.47,32.58,72.65,33.83,73.87Zm3-29.64h0c-.21,2.25-.37,5.2-1.83,6.71s-4.39,1.7-6.75,1.88h0c2.42.31,5.44.5,7,2.13,1.38,1.45,1.41,4.23,1.61,6.33h0c.26-2.13.37-5.06,1.81-6.53s4.49-1.64,6.78-1.92h0c-2.16-.18-5.34-.52-6.86-2S37.09,46.57,36.81,44.23ZM47.38,57.06h0c-.14,1.5-.25,3.46-1.22,4.47s-2.93,1.14-4.51,1.26h0c1.62.2,3.63.33,4.66,1.41s.94,2.82,1.07,4.23h0c.17-1.42.25-3.38,1.21-4.36s3-1.09,4.52-1.28h0c-1.44-.12-3.56-.34-4.58-1.35s-1-2.82-1.14-4.38Zm7.54,10.88h0a3.84,3.84,0,0,1-.61,2.23,3.52,3.52,0,0,1-2.25.63h0a4,4,0,0,1,2.33.71,3.8,3.8,0,0,1,.54,2.11h0a3.9,3.9,0,0,1,.6-2.18,3.93,3.93,0,0,1,2.25-.64h0a4.07,4.07,0,0,1-2.29-.68c-.51-.51-.47-1.41-.57-2.19Z"/><path id="Sparkle3-2" data-name="Sparkle3" class="trust" d="M84.5,55.15h0c-.14,1.5-.25,3.46-1.22,4.47s-2.93,1.14-4.5,1.26h0c1.62.2,3.62.33,4.65,1.41s.94,2.82,1.07,4.23h0c.17-1.42.25-3.37,1.21-4.36s3-1.09,4.52-1.28h0c-1.44-.12-3.56-.34-4.58-1.35s-1-2.82-1.14-4.38ZM92,66h0a3.88,3.88,0,0,1-.6,2.23,3.57,3.57,0,0,1-2.26.63h0a4,4,0,0,1,2.33.71,3.72,3.72,0,0,1,.54,2.11h0a3.9,3.9,0,0,1,.6-2.18,3.94,3.94,0,0,1,2.26-.64h0a4.08,4.08,0,0,1-2.3-.68C92.1,67.7,92.14,66.8,92,66Z"/></svg>
